<svg width="104" height="53" viewBox="0 0 104 53" fill="none" xmlns="http://www.w3.org/2000/svg">
<path d="M18.3091 17.4509H10.3591V21.9318H16.7673V28.2918H10.3591V40H2.12V10.0791H18.7909L18.3091 17.4509ZM35.8842 40H20.6587V10.0791H28.8978V33.3027H36.366L35.8842 40ZM58.3516 10.0791L51.2207 30.7491V40H43.0298V30.7491L35.9952 10.0791H45.0534L47.2216 19.8118H47.607L49.6788 10.0791H58.3516Z" fill="#146C94"/>
<path d="M42.2228 30.0445H37.9105V40.5H34.321V30.0445H30.0087V27.3464H42.2228V30.0445ZM49.8347 27.1055C51.6496 27.1055 53.087 27.6274 54.147 28.6714C55.207 29.6992 55.737 31.1688 55.737 33.08V34.8145H47.257C47.2891 35.8264 47.5863 36.6214 48.1484 37.1995C48.7266 37.7777 49.5216 38.0668 50.5334 38.0668C51.3685 38.0668 52.1314 37.9865 52.822 37.8259C53.5287 37.6492 54.2514 37.3842 54.9902 37.0309V39.8014C54.3317 40.1226 53.6491 40.3555 52.9425 40.5C52.2358 40.6606 51.3766 40.7409 50.3647 40.7409C49.0478 40.7409 47.8834 40.5 46.8716 40.0182C45.8597 39.5203 45.0647 38.7815 44.4866 37.8018C43.9084 36.8061 43.6193 35.5453 43.6193 34.0195C43.6193 32.4938 43.8763 31.217 44.3902 30.1891C44.9202 29.1612 45.651 28.3903 46.5825 27.8764C47.514 27.3624 48.5981 27.1055 49.8347 27.1055ZM49.8588 29.6591C49.1522 29.6591 48.574 29.8839 48.1243 30.3336C47.6746 30.7833 47.4096 31.482 47.3293 32.4295H52.3643C52.3482 31.6426 52.1314 30.9841 51.7138 30.4541C51.3123 29.9241 50.694 29.6591 49.8588 29.6591ZM63.9959 40.7409C62.0365 40.7409 60.5188 40.2029 59.4427 39.1268C58.3827 38.0508 57.8527 36.3403 57.8527 33.9955C57.8527 32.3894 58.1257 31.0805 58.6718 30.0686C59.2178 29.0568 59.9727 28.31 60.9363 27.8282C61.916 27.3464 63.0403 27.1055 64.3091 27.1055C65.2084 27.1055 65.9874 27.1938 66.6459 27.3705C67.3204 27.5471 67.9066 27.7559 68.4045 27.9968L67.3445 30.7673C66.7824 30.5424 66.2524 30.3577 65.7545 30.2132C65.2727 30.0686 64.7909 29.9964 64.3091 29.9964C62.446 29.9964 61.5145 31.3214 61.5145 33.9714C61.5145 35.2883 61.7554 36.26 62.2372 36.8864C62.7351 37.5127 63.4257 37.8259 64.3091 37.8259C65.0639 37.8259 65.7304 37.7295 66.3086 37.5368C66.8868 37.328 67.4489 37.047 67.995 36.6936V39.7532C67.4489 40.1065 66.8707 40.3555 66.2604 40.5C65.6662 40.6606 64.9113 40.7409 63.9959 40.7409ZM81.9116 30.0445H77.5993V40.5H74.0098V30.0445H69.6975V27.3464H81.9116V30.0445ZM84.3384 40.5V27.3464H87.9279V32.4295H89.6625C91.6701 32.4295 93.1557 32.7508 94.1193 33.3932C95.0829 34.0356 95.5648 35.0073 95.5648 36.3082C95.5648 37.593 95.1151 38.6129 94.2157 39.3677C93.3163 40.1226 91.8387 40.5 89.7829 40.5H84.3384ZM97.4679 40.5V27.3464H101.057V40.5H97.4679ZM87.9279 38.0186H89.5902C90.2969 38.0186 90.867 37.8982 91.3007 37.6573C91.7504 37.4003 91.9752 36.9667 91.9752 36.3564C91.9752 35.3927 91.1641 34.9109 89.542 34.9109H87.9279V38.0186Z" fill="white"/>
</svg>
